<svg width="363" height="109" viewBox="0 0 363 109" fill="none" xmlns="http://www.w3.org/2000/svg">
<path d="M0 78.0914V3.70418H26.62C34.122 3.70418 39.93 5.82953 44.286 8.37995C56.3255 15.4847 60.9235 28.0546 60.984 40.8674C60.984 53.7409 56.023 66.6752 44.286 73.3549C39.6275 76.0267 33.275 78.0306 26.62 78.0306H0V78.0914ZM14.8225 64.0641H23.232C28.556 64.0641 32.791 63.2139 37.2075 60.7849C43.9835 56.9593 46.222 48.3365 46.222 40.8067C46.222 32.5482 43.681 24.9577 37.2075 21.0713C32.67 18.278 26.862 17.7922 23.232 17.7922H14.8225V64.0641ZM89.6005 21.5571C103.273 21.5571 111.018 27.9331 111.018 39.9565V62.6067C111.018 64.3677 112.167 65.7036 113.74 65.7036H118.217V77.3019C118.217 77.3019 113.316 77.9092 109.384 77.9092C105.875 77.9092 100.067 75.7838 100.067 69.7114C96.9815 75.1159 90.508 78.9415 82.885 78.9415C72.842 78.9415 62.9805 72.6869 62.9805 60.9671C62.9805 49.0652 73.1445 43.3571 85.7285 43.3571H97.163V42.507C97.163 34.4306 91.6575 33.3376 87.241 33.3376C82.4615 33.3376 75.02 34.9164 70.906 35.888L68.002 25.1398C72.963 23.4396 82.159 21.5571 89.6005 21.5571ZM88.935 53.6802C84.1555 53.6802 76.8955 53.8624 76.8955 60.3599C76.8955 65.2178 80.6465 67.7682 85.426 67.7682C90.9315 67.7682 97.284 62.7888 97.284 57.5058V53.741H88.935V53.6802ZM122.875 0.0607279V66.6145C122.875 73.112 126.506 77.8485 133.766 77.8485C138.182 77.8485 144.293 77.2412 144.293 77.2412V65.6429H139.755C138.243 65.6429 137.275 64.2462 137.275 62.546V0H122.875V0.0607279ZM164.499 0.0607279V28.1153C168.008 23.561 173.817 21.5571 180.895 21.5571C196.141 21.5571 206.184 35.1593 206.184 50.1582C206.184 65.3393 195.899 78.9415 180.048 78.9415C173.574 78.9415 167.222 76.2089 163.41 70.3794L161.111 77.9092H150.221V0.0607279H164.499ZM162.926 50.2189C162.926 58.9025 168.553 66.1894 177.507 66.1894C185.674 66.1894 191.785 60.2384 191.785 50.1582C191.785 40.2602 185.856 34.3092 177.628 34.3092C168.492 34.2485 162.926 41.4746 162.926 50.2189ZM237.463 21.4964C254.524 21.4964 262.751 34.795 262.751 49.4295C262.751 53.1337 262.207 55.8056 262.207 55.8056H224.758C225.423 63.639 232.683 66.6145 239.217 66.6145C245.449 66.6145 250.833 64.9142 254.403 63.3354L259.243 74.0836C253.737 77.2412 246.296 78.8808 238.854 78.8808C222.217 78.8808 210.056 67.6468 210.056 50.7047C210.117 33.7627 221.128 21.4964 237.463 21.4964ZM248.958 45.6646C248.655 39.5922 245.812 33.8234 237.765 33.8234C230.868 33.8234 225.907 38.2563 224.515 45.6646H248.958ZM267.773 23.1359V77.9092H281.083V53.2551C281.083 36.4345 294.091 36.3131 300.02 36.3131V22.2251C291.61 22.2251 284.471 24.4719 281.083 31.4552L279.268 23.1967H267.773V23.1359ZM310.486 82.8886L306.856 95.0941H348.298V109H360.096V95.0941V83.3744V82.8886H310.486ZM363 22.1643C356.466 22.1643 350.719 23.5003 346.907 27.3866C342.128 23.6217 336.017 21.5571 329.241 21.5571C313.269 21.5571 301.048 33.2162 301.048 50.2189C301.048 67.2217 313.39 78.8808 329.241 78.8808C345.031 78.8808 357.434 67.2217 357.434 50.2189C357.434 45.361 356.466 40.9889 354.651 37.1632C357.676 36.3131 360.822 36.2524 363 36.2524V22.1643ZM329.241 66.1287C320.892 66.1287 315.145 59.3276 315.145 50.2189C315.145 40.746 320.892 34.3092 329.241 34.3092C337.408 34.3092 343.338 40.8067 343.338 50.2189C343.277 59.3276 337.287 66.1287 329.241 66.1287Z" fill="#881946"></path>
</svg>