<?xml version="1.0" encoding="UTF-8" standalone="no"?>
<!DOCTYPE svg PUBLIC "-//W3C//DTD SVG 1.1//EN" "http://www.w3.org/Graphics/SVG/1.1/DTD/svg11.dtd">
<svg width="100%" height="100%" viewBox="0 0 1080 200" version="1.1" xmlns="http://www.w3.org/2000/svg" xmlns:xlink="http://www.w3.org/1999/xlink" xml:space="preserve" xmlns:serif="http://www.serif.com/" style="fill-rule:evenodd;clip-rule:evenodd;stroke-linejoin:round;stroke-miterlimit:2;">
    <g transform="matrix(9.945068,0,0,9.539163,-0.64099,-109.822476)">
        <path d="M66.42,15.476L66.42,29.238L70.244,29.238L70.244,15.476L66.42,15.476ZM36.348,15.457L36.348,29.238L40.205,29.238L40.205,18.541L43.213,18.551C44.203,18.551 44.888,18.793 45.364,19.31C45.969,19.965 46.215,21.021 46.215,22.953L46.215,29.238L49.952,29.238L49.952,21.624C49.952,16.19 46.545,15.457 43.212,15.457L36.348,15.457ZM72.576,15.476L72.576,29.237L78.776,29.237C82.079,29.237 83.157,28.678 84.324,27.426C85.148,26.547 85.68,24.617 85.68,22.508C85.68,20.573 85.23,18.848 84.443,17.773C83.027,15.852 80.987,15.476 77.94,15.476L72.576,15.476ZM76.367,18.472L78.01,18.472C80.395,18.472 81.937,19.561 81.937,22.385C81.937,25.209 80.395,26.299 78.01,26.299L76.367,26.299L76.367,18.472ZM60.908,15.476L57.718,26.382L54.661,15.476L50.535,15.476L54.901,29.237L60.41,29.237L64.811,15.476L60.908,15.476ZM87.458,29.237L91.283,29.237L91.283,15.476L87.458,15.476L87.458,29.237ZM98.176,15.481L92.838,29.232L96.607,29.232L97.452,26.802L103.769,26.802L104.569,29.232L108.661,29.232L103.283,15.479L98.176,15.479L98.176,15.481ZM100.657,17.99L102.973,24.433L98.268,24.433L100.657,17.99Z" style="fill-rule:nonzero;"/>
    </g>
    <g transform="matrix(9.945068,0,0,9.539163,-0.64099,-109.822476)">
        <path d="M11.693,17.77L11.693,15.876C11.874,15.863 12.056,15.853 12.242,15.847C17.337,15.684 20.68,20.298 20.68,20.298C20.68,20.298 17.07,25.396 13.199,25.396C12.642,25.396 12.142,25.305 11.693,25.151L11.693,19.408C13.677,19.651 14.075,20.542 15.267,22.562L17.919,20.288C17.919,20.288 15.983,17.707 12.72,17.707C12.365,17.707 12.025,17.732 11.691,17.768L11.693,17.77ZM11.691,11.513L11.691,14.342C11.874,14.327 12.057,14.315 12.241,14.308C19.326,14.066 23.942,20.216 23.942,20.216C23.942,20.216 18.641,26.77 13.117,26.77C12.611,26.77 12.137,26.723 11.691,26.643L11.691,28.392C12.072,28.441 12.467,28.47 12.878,28.47C18.018,28.47 21.736,25.802 25.336,22.643C25.932,23.128 28.375,24.31 28.878,24.828C25.455,27.741 17.48,30.088 12.957,30.088C12.521,30.088 12.102,30.062 11.691,30.022L11.691,32.479L31.228,32.479L31.228,11.514L11.693,11.514L11.691,11.513ZM11.691,25.15L11.691,26.643C6.937,25.781 5.617,20.758 5.617,20.758C5.617,20.758 7.9,18.186 11.691,17.77L11.691,19.408L11.684,19.408C9.695,19.165 8.141,21.055 8.141,21.055C8.141,21.055 9.012,24.236 11.693,25.152L11.691,25.15ZM3.249,20.542C3.249,20.542 6.066,16.315 11.693,15.877L11.693,14.344C5.461,14.853 0.064,20.218 0.064,20.218C0.064,20.218 3.12,29.202 11.693,30.024L11.693,28.395C5.402,27.59 3.249,20.542 3.249,20.542Z" style="fill:rgb(118,185,0);fill-rule:nonzero;"/>
    </g>
</svg>
